<?xml version="1.0" encoding="UTF-8"?><svg id="_レイヤー_2" xmlns="http://www.w3.org/2000/svg" viewBox="0 0 47 47"><g id="main"><g style="fill:none; opacity:.6;"><circle cx="23.5" cy="23.5" r="23.5" style="fill:#fff;"/><path d="m26.03,20.78v3.74c0,.09-.07.17-.17.17h-.6c-.06,0-.11-.03-.14-.07l-1.71-2.31v2.22c0,.09-.07.17-.17.17h-.6c-.09,0-.17-.07-.17-.17v-3.74c0-.09.07-.17.17-.17h.59c.05,0,.11.03.14.07l1.71,2.31v-2.22c0-.09.07-.17.17-.17h.6c.09,0,.17.07.17.16h0Zm-4.31-.17h-.6c-.09,0-.17.07-.17.17v3.74c0,.09.07.17.17.17h.6c.09,0,.17-.07.17-.17v-3.74c0-.09-.07-.17-.17-.17h0Zm-1.45,3.13h-1.64v-2.97c0-.09-.07-.17-.17-.17h-.6c-.09,0-.17.07-.17.17v3.74s.02.08.05.12c.03.03.07.05.12.05h2.4c.09,0,.17-.07.17-.17v-.6c0-.09-.07-.17-.16-.17h0Zm8.91-3.13h-2.4c-.09,0-.17.07-.17.17v3.74c0,.09.07.17.17.17h2.4c.09,0,.17-.07.17-.17v-.6c0-.09-.07-.17-.17-.17h-1.64v-.63h1.64c.09,0,.17-.07.17-.17v-.6c0-.09-.07-.17-.17-.17h-1.64v-.63h1.64c.09,0,.17-.07.17-.17v-.6c0-.09-.08-.17-.17-.17h0Zm6.1-4.59v15c0,2.36-1.94,4.27-4.3,4.26h-15c-2.36,0-4.27-1.94-4.26-4.3v-15c0-2.36,1.94-4.27,4.3-4.26h15.01c2.36,0,4.27,1.94,4.26,4.3Zm-3.24,6.45c0-3.84-3.85-6.96-8.58-6.96s-8.58,3.12-8.58,6.96c0,3.44,3.05,6.32,7.17,6.87,1,.22.89.58.66,1.94-.04.22-.17.85.74.46.91-.38,4.94-2.91,6.74-4.98,1.24-1.37,1.84-2.75,1.84-4.29Z" style="fill:#231815;"/></g></g></svg>