<?xml version="1.0" encoding="UTF-8"?><svg id="_レイヤー_2" xmlns="http://www.w3.org/2000/svg" viewBox="0 0 47 47"><g id="main"><g style="fill:none; opacity:.6;"><circle cx="23.5" cy="23.5" r="23.5" style="fill:#fff;"/><path d="m29.71,21.17h.83c0-2.6-2.11-4.71-4.71-4.71v.83c2.14,0,3.88,1.74,3.88,3.88Z" style="fill:#231815;"/><path d="m32.88,21.17h.83c0-4.35-3.54-7.88-7.88-7.88v.83c3.89,0,7.06,3.16,7.06,7.05Z" style="fill:#231815;"/><path d="m25.83,10.12v.83c5.64,0,10.23,4.59,10.23,10.23h.83c0-6.1-4.96-11.05-11.05-11.05Z" style="fill:#231815;"/><path d="m33.9,29.25l-3.09-2.16c-1.21-.81-2.34-.79-3.18.05l-1.22,1.22c-.29.29-.77.18-1.39-.09l-.14-.06c-.67-.28-1.8-.75-3.55-2.55h0c-1.8-1.75-2.27-2.88-2.55-3.55l-.06-.14c-.27-.62-.38-1.09-.09-1.39l1.22-1.22c.84-.84.86-1.97.05-3.19l-2.13-3.07-.02-.02c-.64-.78-1.39-1.21-2.17-1.25-.75-.04-1.49.29-2.16.97l-1.51,1.51c-1.62,1.62-2.17,4.33-1.53,7.45.69,3.25,2.61,6.59,5.41,9.41l.03.03c2.81,2.81,6.15,4.73,9.41,5.41.85.17,1.68.27,2.46.27,2.06,0,3.81-.62,4.99-1.79l1.51-1.51c.67-.67,1.01-1.41.97-2.16-.04-.78-.47-1.53-1.25-2.17Zm-.3,3.75l-1.51,1.51c-1.42,1.42-3.86,1.89-6.69,1.3-3.1-.65-6.29-2.49-8.99-5.19h0s-.01-.02-.01-.02c-2.69-2.7-4.54-5.89-5.19-8.99-.59-2.83-.12-5.27,1.3-6.69l1.51-1.51c.51-.51,1.03-.75,1.54-.72.54.02,1.07.35,1.56.93l2.12,3.04c.87,1.32.25,1.94.05,2.14l-1.23,1.23c-.75.75-.3,1.79-.09,2.29l.05.13c.31.73.82,1.95,2.73,3.81,1.86,1.91,3.09,2.43,3.81,2.73l.13.05c.5.21,1.55.66,2.29-.09l1.23-1.23c.2-.2.82-.82,2.13.05l3.05,2.13c.58.49.91,1.02.93,1.56.03.51-.21,1.03-.72,1.54Z" style="fill:#fff;"/><path d="m34.32,31.46c.03.51-.21,1.03-.72,1.54l-1.51,1.51c-1.42,1.42-3.86,1.89-6.69,1.3-3.1-.65-6.29-2.49-8.99-5.19h0s-.01-.02-.01-.02c-2.69-2.7-4.54-5.89-5.19-8.99-.59-2.83-.12-5.27,1.3-6.69l1.51-1.51c.51-.51,1.03-.75,1.54-.72.54.02,1.07.35,1.56.93l2.12,3.04c.87,1.32.25,1.94.05,2.14l-1.23,1.23c-.75.75-.3,1.79-.09,2.29l.05.13c.31.73.82,1.95,2.73,3.81,1.86,1.91,3.09,2.43,3.81,2.73l.13.05c.5.21,1.55.66,2.29-.09l1.23-1.23c.2-.2.82-.82,2.13.05l3.05,2.13c.58.49.91,1.02.93,1.56Z" style="fill:#231815;"/></g></g></svg>