<?xml version="1.0" encoding="UTF-8"?><svg id="_レイヤー_2" xmlns="http://www.w3.org/2000/svg" viewBox="0 0 47 47"><g id="main"><g style="fill:none; opacity:.6;"><circle cx="23.5" cy="23.5" r="23.5" style="fill:#fff;"/><path d="m23.94,17.05c-3.25,0-5.88,2.62-5.88,5.88s2.62,5.88,5.88,5.88,5.88-2.62,5.88-5.88-2.62-5.88-5.88-5.88Zm0,9.7c-2.1,0-3.82-1.71-3.82-3.82s1.71-3.82,3.82-3.82,3.82,1.71,3.82,3.82-1.72,3.82-3.82,3.82h0Zm7.49-9.94c0,.76-.61,1.37-1.37,1.37s-1.37-.61-1.37-1.37.61-1.37,1.37-1.37,1.37.61,1.37,1.37Zm3.89,1.39c-.09-1.84-.51-3.46-1.85-4.8-1.34-1.34-2.97-1.76-4.8-1.85-1.89-.11-7.57-.11-9.46,0-1.83.09-3.46.51-4.8,1.85-1.35,1.34-1.76,2.97-1.85,4.8-.11,1.89-.11,7.57,0,9.46.09,1.84.51,3.46,1.85,4.8,1.35,1.34,2.97,1.76,4.8,1.85,1.89.11,7.57.11,9.46,0,1.84-.09,3.46-.51,4.8-1.85,1.34-1.34,1.76-2.97,1.85-4.8.11-1.89.11-7.56,0-9.45h0Zm-2.45,11.48c-.4,1-1.17,1.78-2.18,2.18-1.51.6-5.09.46-6.76.46s-5.25.13-6.76-.46c-1-.4-1.78-1.17-2.18-2.18-.6-1.51-.46-5.09-.46-6.76s-.13-5.25.46-6.76c.4-1,1.17-1.78,2.18-2.18,1.51-.6,5.09-.46,6.76-.46s5.25-.13,6.76.46c1,.4,1.78,1.17,2.18,2.18.6,1.51.46,5.09.46,6.76s.14,5.25-.46,6.76Z" style="fill:#231815;"/></g></g></svg>