<?xml version="1.0" encoding="UTF-8"?><svg id="_レイヤー_2" xmlns="http://www.w3.org/2000/svg" viewBox="0 0 23.56 23.56"><g id="main"><path d="m14.31,9.06v3.74c0,.09-.07.17-.17.17h-.6c-.06,0-.11-.03-.14-.07l-1.71-2.31v2.22c0,.09-.07.17-.17.17h-.6c-.09,0-.17-.07-.17-.17v-3.74c0-.09.07-.17.17-.17h.59c.05,0,.11.03.14.07l1.71,2.31v-2.22c0-.09.07-.17.17-.17h.6c.09,0,.17.07.17.16h0Zm-4.31-.17h-.6c-.09,0-.17.07-.17.17v3.74c0,.09.07.17.17.17h.6c.09,0,.17-.07.17-.17v-3.74c0-.09-.07-.17-.17-.17h0Zm-1.45,3.13h-1.64v-2.97c0-.09-.07-.17-.17-.17h-.6c-.09,0-.17.07-.17.17v3.74s.02.08.05.12c.03.03.07.05.12.05h2.4c.09,0,.17-.07.17-.17v-.6c0-.09-.07-.17-.16-.17h0Zm8.91-3.13h-2.4c-.09,0-.17.07-.17.17v3.74c0,.09.07.17.17.17h2.4c.09,0,.17-.07.17-.17v-.6c0-.09-.07-.17-.17-.17h-1.64v-.63h1.64c.09,0,.17-.07.17-.17v-.6c0-.09-.07-.17-.17-.17h-1.64v-.63h1.64c.09,0,.17-.07.17-.17v-.6c0-.09-.08-.17-.17-.17h0Zm6.1-4.59v15c0,2.36-1.94,4.27-4.3,4.26H4.26C1.9,23.56,0,21.62,0,19.26V4.26C0,1.9,1.94,0,4.3,0h15c2.36,0,4.27,1.94,4.26,4.3Zm-3.24,6.45c0-3.84-3.85-6.96-8.58-6.96S3.17,6.91,3.17,10.74c0,3.44,3.05,6.32,7.17,6.87,1,.22.89.58.66,1.94-.04.22-.17.85.74.46.92-.38,4.94-2.91,6.74-4.98,1.24-1.37,1.84-2.75,1.84-4.29Z" style="fill:#fff;"/></g></svg>