<?xml version="1.0" encoding="UTF-8"?><svg id="_レイヤー_2" xmlns="http://www.w3.org/2000/svg" viewBox="0 0 32.66 32.66"><g id="main"><path d="m20.65,14.71h.57c0-1.8-1.47-3.27-3.27-3.27v.57c1.49,0,2.7,1.21,2.7,2.7Z" style="fill:#fff;"/><path d="m22.85,14.71h.57c0-3.02-2.46-5.48-5.48-5.48v.57c2.7,0,4.9,2.2,4.9,4.9Z" style="fill:#fff;"/><path d="m17.95,7.03v.57c3.92,0,7.11,3.19,7.11,7.11h.57c0-4.24-3.45-7.68-7.68-7.68Z" style="fill:#fff;"/><path d="m23.56,20.33l-2.15-1.5c-.84-.56-1.63-.55-2.21.04l-.85.85c-.2.2-.53.13-.96-.06l-.1-.04c-.47-.19-1.25-.52-2.46-1.77h0c-1.25-1.22-1.58-2-1.77-2.47l-.04-.1c-.19-.43-.26-.76-.06-.96l.85-.85c.58-.58.6-1.37.03-2.21l-1.48-2.13h-.01c-.44-.56-.96-.85-1.51-.88-.52-.03-1.04.2-1.5.67l-1.05,1.05c-1.13,1.13-1.51,3.01-1.06,5.17.48,2.26,1.81,4.58,3.76,6.54l.02.02c1.96,1.95,4.28,3.28,6.54,3.76.59.12,1.17.19,1.71.19,1.43,0,2.65-.43,3.47-1.25l1.05-1.05c.47-.46.7-.98.67-1.5-.03-.54-.32-1.06-.87-1.51Zm-.21,2.6l-1.05,1.05c-.99.99-2.68,1.32-4.65.9-2.15-.45-4.37-1.73-6.25-3.6h0s0-.01,0-.01c-1.87-1.88-3.16-4.1-3.6-6.25-.41-1.97-.08-3.66.9-4.65l1.05-1.05c.35-.35.71-.52,1.07-.5.38.01.75.24,1.08.64l1.47,2.11c.61.92.18,1.35.04,1.49l-.85.85c-.52.52-.21,1.25-.06,1.59l.04.09c.21.5.57,1.36,1.9,2.65,1.29,1.33,2.14,1.69,2.65,1.9l.09.04c.35.15,1.07.46,1.59-.06l.85-.85c.14-.14.57-.57,1.48.03l2.12,1.48c.4.34.63.71.64,1.08.02.36-.15.72-.5,1.07Z" style="fill:#fff;"/><path d="m23.85,21.86c.02.36-.15.72-.5,1.07l-1.05,1.05c-.99.99-2.68,1.32-4.65.9-2.15-.45-4.37-1.73-6.25-3.6h0s0-.01,0-.01c-1.87-1.88-3.16-4.1-3.6-6.25-.41-1.97-.08-3.66.9-4.65l1.05-1.05c.35-.35.71-.52,1.07-.5.38.01.75.24,1.08.64l1.47,2.11c.61.92.18,1.35.04,1.49l-.85.85c-.52.52-.21,1.25-.06,1.59l.04.09c.21.5.57,1.36,1.9,2.65,1.29,1.33,2.14,1.69,2.65,1.9l.09.04c.35.15,1.07.46,1.59-.06l.85-.85c.14-.14.57-.57,1.48.03l2.12,1.48c.4.34.63.71.64,1.08Z" style="fill:#fff;"/><path d="m16.33.93c8.49,0,15.4,6.91,15.4,15.4s-6.91,15.4-15.4,15.4S.93,24.83.93,16.33,7.84.93,16.33.93m0-.93C7.31,0,0,7.31,0,16.33s7.31,16.33,16.33,16.33,16.33-7.31,16.33-16.33S25.35,0,16.33,0h0Z" style="fill:#fff;"/></g></svg>