<?xml version="1.0" encoding="UTF-8"?><svg id="_レイヤー_2" xmlns="http://www.w3.org/2000/svg" viewBox="0 0 233.27 76.76"><g id="main"><path d="m125.79,1.87c-.37.47-.67,1.24-1.14,1.57s-.7,1.07-1.14,1.31c-.57.27-.94.7-1.24,1.21-.37.57-1.14.64-1.51,1.17-.5.64-1.67,1.51-2.38,1.94-.54.37-1.1.67-1.57,1.17-.74.84-1.41,1.81-2.01,2.75-.17.2-.94.9-.94,1.07,0,.13.23.13.33.13.8,0,1.44-1.07,2.18-1.27.57-.13,1.17-.8,1.74-.8.33,0,.64.27.64.6,0,.47-.3.87-.3,1.37,0,.67.5.97,1.14.97.44,0,.87-.17,1.27-.37.6-.27,1.21-.37,1.81-.7.13-.1,1.24-.57,1.34-.57.17,0,.4.1.4.3,0,.07-.07.13-.13.17-.47.3-.44.33-1.07.54-.6.2-1.1.7-1.77.9-.6.13-1.34.64-1.94.64h-.2c-.9-.23-1.34-.37-1.74-1.27-.23-.5-.3-1.1-.94-1.1-.43,0-.94.57-1.41.74-1.07.4-.94.7-1.64,1.1-.44.23-1.1.5-1.57.5-.37,0-.64-.2-.64-.6,0-.44.33-.7.7-.9s.1-.64.64-1c.33-.2.5-.4.5-.84,0-.1-.03-.2-.07-.23-.1.1-.23.17-.37.23-.44.17-.7.5-1.14.67-.57.2-.97.7-1.54.94-.23.1-.5.2-.74.2-.13,0-.47-.1-.47-.23s1.98-1.21,2.28-1.44c.43-.37.64-.74,1.21-.87.6-.13.7-.94,1.37-.94.77,0,1.74-1.47,2.04-2.11.67-1.41,3.48-6.03,4.82-6.66.27-.13.54-.27.77-.47.4-.27.57-.64,1.07-.77,1-.23,1.37-.9,2.54-.9.67,0,1.1.1,1.1.9,0,.33-.1.67-.3.97Zm-1-.94c-1.71,0-2.54,1.47-3.25,1.61-.8.13-2.31,2.58-2.75,3.31-.4.67-.87,1.37-.87,2.21,0,.07.03.1.1.1.4,0,1.44-.8,1.74-1.1.44-.44.84-.5,1.27-1.04.37-.44.67-.67,1.1-1,.27-.23.47-.57.74-.84.47-.47.94-.84,1.34-1.37.27-.3.9-1.27.9-1.71,0-.17-.23-.17-.33-.17Z" style="fill:#fff;"/><path d="m132.76,14.03c-.4.27-2.04.97-2.54,1.14-.33.1-.64.3-.94.47-.23.1-.97.23-1.24.23-.77,0-.74-.8-1.27-.8-.47,0-.87.64-1.74.64-.4,0-.77-.1-1.14-.2-.64-.17-.94-.3-.94-1.04,0-.97,1.34-1.91,2.11-2.34.64-.33,1.31-.94,2.14-.94h.13c.33,0,.64-.13.94-.13.54,0,.7.67.7,1.1,0,.67-.6,1.31-.6,1.77,0,.3.2.74.54.74.27,0,2.04-.5,2.34-.67.3-.17,1.14-.57,1.47-.57.13,0,.33.07.33.2,0,.17-.2.33-.3.4Zm-5.29-1.91c-.74,0-1.94,1.24-2.61,1.61-.2.13-.4.3-.4.57,0,.3.3.47.57.47.6,0,1.61-.84,1.91-1.34.2-.37.87-.57.87-.9,0-.2-.13-.4-.33-.4Z" style="fill:#fff;"/><path d="m138.38,14.43c-.4.2-.77.33-1.14.64-.4.37-1.07.44-1.61.57-.4.1-.87.37-1.31.37-.5,0-1.57-.4-1.74-.9-.07-.3-.07-.67-.23-.9-.1-.17-.3-.33-.3-.54,0-.23.67-.87.87-1,.37-.23.6-.6.87-.94.2-.27.6-.33.94-.33.3,0,.57.03.57.44,0,.13-.03.23-.13.3-.3.2-.37.77-.74.94-.33.13-.7.64-.7,1.04s.37.77.77.77c.23,0,.43-.1.67-.1.1,0,.23.03.37.03.2,0,.3-.03.43-.17.37-.3,1.21-.17,1.74-.57.4-.3.64-.23.87-.4.17-.1.37-.2.57-.2.13,0,.33.03.33.2,0,.4-.8.64-1.11.77Zm3.62-9.01c-.84,0-1.34-.74-1.34-1.54,0-.37.67-1.34.94-1.34.17,0,.37.23.5.37.3.33.23.87.3,1.27.03.27.27.47.27.7,0,.27-.4.54-.67.54Z" style="fill:#fff;"/><path d="m150.82,13.49c-.4.3-1.47.9-1.91,1-.23.07-.44.1-.67.1-.4,0-.84-.1-1.21-.3-.6-.33-.4-.54-.84-.84-.13-.1-.17-.2-.17-.33s.03-.27.03-.44c0-.27.2-.47.2-.74,0-.23-.13-.44-.37-.44-.33,0-.6.54-.74.8-.27.4-.74.64-1.17.77-.4.13-.6.5-.97.7-1.14.67-1.1,1.37-1.91,1.98-.4.3-.43.8-1.34.8-.23,0-.57-.1-.57-.4,0-.4.9-1.1,1.21-1.34.4-.3.57-.74,1-1,.37-.23.57-.54.57-.97,0-.13-.13-.2-.27-.2-.5,0-.87.67-1.27.67-.3,0-.8.47-1.14.57-.33.07-.84.44-1.07.44-.17,0-.3-.1-.3-.27,0-.44,1.07-.67,1.37-.97.47-.44,1.17-.7,1.74-.97.23-.13,1.34-.94,1.57-.94.23.07.77.2.77.47,0,.13.07.17.17.17.27,0,.6-.2.8-.37.43-.33.27-.57.9-.7.2-.07,1.11-.4,1.17-.4.44,0,.77.7.77,1.07v.3c0,.4.13.7.13,1.1,0,.2.03.37.1.6.13.3.47.4.77.4.94,0,2.38-1,2.54-1s.3.17.3.3c0,.17-.13.3-.23.37Z" style="fill:#fff;"/><path d="m171.37,13.49c-.4.3-1.47.9-1.91,1-.23.07-.44.1-.67.1-.4,0-.84-.1-1.21-.3-.6-.33-.4-.54-.84-.84-.13-.1-.17-.2-.17-.33s.03-.27.03-.44c0-.27.2-.47.2-.74,0-.23-.13-.44-.37-.44-.33,0-.6.54-.74.8-.27.4-.74.64-1.17.77-.4.13-.6.5-.97.7-1.14.67-1.1,1.37-1.91,1.98-.4.3-.43.8-1.34.8-.23,0-.57-.1-.57-.4,0-.4.9-1.1,1.21-1.34.4-.3.57-.74,1-1,.37-.23.57-.54.57-.97,0-.13-.13-.2-.27-.2-.5,0-.87.67-1.27.67-.3,0-.8.47-1.14.57-.33.07-.84.44-1.07.44-.17,0-.3-.1-.3-.27,0-.44,1.07-.67,1.37-.97.47-.44,1.17-.7,1.74-.97.23-.13,1.34-.94,1.57-.94.23.07.77.2.77.47,0,.13.07.17.17.17.27,0,.6-.2.8-.37.43-.33.27-.57.9-.7.2-.07,1.11-.4,1.17-.4.44,0,.77.7.77,1.07v.3c0,.4.13.7.13,1.1,0,.2.03.37.1.6.13.3.47.4.77.4.94,0,2.38-1,2.54-1s.3.17.3.3c0,.17-.13.3-.23.37Z" style="fill:#fff;"/><path d="m185.22,14.66c-.9,0-1.64-.54-2.18-.54-.67,0-.97.74-1.57.87-1.07.27-.84,1.27-2.75,1.27-1.41,0-1.51-1.07-2.54-1.21-.4-.03-1.1-.17-1.37-.5s-.44-.47-.87-.54c-.23-.03-.5-.23-.74-.23-.2,0-.8.97-1.21,1.24-.77.54-.87,1.24-2.08,1.24-.47,0-1.71-.2-1.71-.8,0-.13.03-.23.07-.37.13-.33.2-.97.5-1.17.33-.27.57-.67.9-.94.54-.4,1.21-.67,1.71-1.1.47-.37.77-.47,1.34-.54.3-.07.6-.13.9-.13.33,0,.47.13.57.44.13.27.54,1.14.54,1.34,0,.87,1.54,1.34,2.21,1.34.74,0,1.47-1.21,2.04-1.57.47-.3,1-.57,1.44-.94.33-.3.7-.77,1.14-.87.37-.1.74-.37,1.14-.37.37,0,1.17,1.04,1.17,1.41,0,.23-.07.47-.07.74,0,.64.87,1,1.41,1,1.21,0,2.18-.9,2.71-.9.1,0,.13.07.13.13,0,.7-2.24,1.71-2.85,1.71Zm-13.42-1.74c-.2,0-.47.13-.7.2-.4.07-1.34,1.47-1.34,1.84,0,.13.13.27.3.27.1,0,.27-.07.33-.2.3-.4.7-.67,1.1-1,.3-.23.5-.5.5-.9,0-.17-.07-.2-.2-.2Zm9.21,0c-.74,0-1.14.67-1.64,1.07-.07.07-.23.2-.23.3,0,.27.37.3.54.3.4,0,.97-.5,1.34-.7.2-.07.4-.27.4-.54,0-.23-.17-.44-.4-.44Z" style="fill:#fff;"/><path d="m205.97,14.46c-1.07.44-2.24,1.34-3.45,1.34-.13,0-.27-.03-.4-.03-.2,0-.37.07-.57.07-.8,0-1.37-.7-1.37-1.51,0-.47.27-.8.27-.97s-.23-.2-.37-.2c-.44,0-.54.37-1.24.37-.4,0-.8.37-1.17.54-.5.23-.97.47-1.44.77-.43.27-.54,1.04-1,1.1-.07.03-.17.03-.27.03,0,0-.9-.4-.9-.77,0-.6.87-.77.87-1.47,0-.37-.27-.54-.64-.54-.3,0-.57.13-.84.3-.47.37-.77.44-1.34.54-.54.13-1.21.5-1.67.84-.3.23-.77.94-1.17.94-.23,0-.94-.4-.94-.64,0-.2.13-.37.3-.47.33-.2.67-1.31.67-1.64,0-.27-.17-.33-.4-.33-1,0-1.1.74-1.77.87-.6.13-1.17.77-1.71.77-.17,0-.33-.07-.33-.23,0-.2.13-.33.3-.44.37-.17.7-.44,1.04-.67.77-.54,2.08-1.74,3.05-1.74.33,0,.17.17.5.23.33.1,1,.2,1,.67,0,.3-.2.6-.2.94,0,.17.1.27.3.27s.4-.1.64-.1c.17-.13.4-.2.6-.3.64-.33,1.17-1.04,1.94-1.07.74,0,1.1-.5,1.61-.5.4,0,1.41.44,1.41.9,0,.23-.3.57-.3.87,0,.1.03.13.13.13.6,0,2.01-1.1,2.85-1.24.54-.07.84-.77,1.51-.77.54,0,1.14.47,1.14,1.04,0,.54-1.04,1-1.04,2.28,0,.33.44.37.87.37s.94-.07,1.3-.33c.47-.27,1-.3,1.44-.57.3-.17.57-.27.87-.4.2-.1.5-.3.74-.3.13,0,.3.1.3.23,0,.37-.87.74-1.11.84Z" style="fill:#fff;"/><path d="m121.91,75.26l-.22.84h-19.62v-.84l2.53-.21c3.85-.3,5.67-2.91,4.76-6.61l-5.02-14.66c-.6-1.77-2.08-3.11-3.9-3.52-14.19-3.12-24.18,1.51-29.12,15.47-.12.36-.24.72-.37,1.08-1.25,4.69.98,8.05,5.7,8.35l1.37.11-.22.84h-25.26c-.13-.26-.2-.55-.22-.84l1.06-.11c3.59-.32,5.91-3.38,5.91-7.49v-25.45c1.4.91,2.71,1.81,3.9,2.73v22.8c.04,1.4,1.04,2.59,2.42,2.87,1.38.28,2.76-.41,3.36-1.69.04-.09.08-.18.12-.27l2.35-7.08c1.87-9.97-3.16-15.71-12.14-21.51h0s-.17-.12-.17-.12c-25.27-12.14-45.04.69-48.25,27.72,0,4.11,2.32,7.17,5.91,7.49.96.1,1.12-.14.84.95H.22c-.13-.26-.2-.55-.22-.84l1.05-.11c3.59-.32,5.91-3.38,5.91-7.49V14.93c0-4.11-2.32-7.17-5.91-7.49-.96-.1-1.12.14-.84-.95h17.4c.13.26.2.55.22.84l-1.05.11c-3.59.32-5.91,3.38-5.91,7.49v45.66c6.87-27.43,29.56-30.67,48.42-21.62V14.92c0-4.11-2.32-7.17-5.91-7.49-.96-.1-1.12.14-.84-.95h17.4c.13.26.2.55.22.84l-1.06.11c-3.59.32-5.91,3.38-5.91,7.49v26.72c5.99,4.44,9.59,9.15,9.59,15.88L90.25,4.91h.95l22.13,62.77c1.72,4.61,4.65,7.72,7.62,7.6l.96-.02Zm-20.61-26.92c.52-.58.69-1.4.44-2.14l-12.3-35.93-16.27,49.52c5.48-10.26,15.53-13.09,26.05-10.78.76.17,1.55-.08,2.08-.67Z" style="fill:#fff;"/><path d="m169.96,69.25c-10.66,10.22-27.55,9.98-37.92-.54-10.37-10.52-10.37-27.41,0-37.92,10.37-10.52,27.26-10.76,37.92-.54l-.76.76c-10.24-9.79-26.45-9.55-36.39.54-9.94,10.09-9.94,26.3,0,36.39,9.94,10.09,26.15,10.33,36.39.54l.76.76Z" style="fill:#fff;"/><path d="m206.8,69.25c-10.66,10.22-27.55,9.98-37.92-.54-10.37-10.52-10.37-27.41,0-37.92,10.37-10.52,27.26-10.76,37.92-.54l-.76.76c-10.24-9.79-26.45-9.55-36.39.54-9.94,10.09-9.94,26.3,0,36.39,9.94,10.09,26.15,10.33,36.39.54l.76.76Z" style="fill:#fff;"/><path d="m233.06,76.65h-17.41c-.13-.26-.2-.55-.22-.84l1.06-.11c3.59-.32,5.91-3.38,5.91-7.49V15.45c0-4.11-2.32-7.17-5.91-7.49-.96-.1-1.12.14-.84-.95h17.41c.13.26.2.55.21.84l-1.05.11c-3.59.32-5.91,3.38-5.91,7.49v52.75c0,4.11,2.32,7.17,5.91,7.49.96.1,1.12-.14.85.95Z" style="fill:#fff;"/></g></svg>